<svg id="Layer_1" data-name="Layer 1" xmlns="http://www.w3.org/2000/svg" xmlns:xlink="http://www.w3.org/1999/xlink" viewBox="0 0 612 792"><defs><style>.cls-1,.cls-12{fill:none;}.cls-1{stroke:#d94527;stroke-width:4px;}.cls-1,.cls-18{stroke-miterlimit:10;}.cls-2{clip-path:url(#clip-path);}.cls-15,.cls-3{font-size:16px;}.cls-3,.cls-7{fill:#424142;}.cls-13,.cls-15,.cls-3,.cls-6,.cls-7{font-family:Proxima Nova;}.cls-4{letter-spacing:-1px;}.cls-5{fill:#4d4c48;}.cls-6,.cls-7{font-size:14px;}.cls-6{fill:#fff;}.cls-17,.cls-8{font-weight:700;}.cls-16,.cls-9{white-space:pre;}.cls-10{font-size:13px;}.cls-11{font-size:12px;}.cls-12{opacity:0.4;}.cls-13{font-size:28px;fill:#f1eade;}.cls-14{letter-spacing:1px;}.cls-15{fill:#eaeaea;}.cls-16,.cls-17,.cls-18{fill:#d94527;}.cls-16,.cls-17{font-size:19px;}.cls-18{stroke:#0e0e0e;}</style><clipPath id="clip-path"><circle class="cls-1" cx="67.92" cy="57.78" r="49.42"/></clipPath></defs><title>RESUME</title><g class="cls-2"><image width="450" height="392" transform="translate(7.02 7.99) scale(0.28)" xlink:href="dribbblepic.jpg"/></g><circle class="cls-1" cx="67.92" cy="57.78" r="49.42"/><text class="cls-3" transform="translate(37.12 147.23)">MISSION</text><text class="cls-3" transform="translate(37.12 219.76)">SKILLS:</text><text class="cls-3" transform="translate(37.12 390.9)">EDU<tspan x="33.9" y="0">C</tspan><tspan x="45.47" y="0">A</tspan><tspan x="55.66" y="0">TION:</tspan></text><text class="cls-3" transform="translate(37.12 508.61)">W<tspan x="14.67" y="0">ORK EXPERIENCE:</tspan></text><text class="cls-3" transform="translate(37.12 171.24)"><tspan class="cls-4">T</tspan><tspan x="7.28" y="0">o contribute to a team of creative designers, and create designs that </tspan><tspan x="0" y="19.2">are intuitiv</tspan><tspan x="72.53" y="19.2">e</tspan><tspan x="81.42" y="19.2">, effective and beautiful.</tspan></text><rect class="cls-5" x="76.09" y="232.21" width="144.45" height="135.31"/><rect class="cls-5" x="280.56" y="232.21" width="292.09" height="135.31"/><text class="cls-6" transform="translate(86.45 260.28)">- HTML<tspan x="0" y="16.8">- CSS</tspan><tspan x="0" y="33.6">- </tspan><tspan x="7.81" y="33.6">R</tspan><tspan x="15.9" y="33.6">esponsive Design</tspan><tspan x="0" y="50.4">- Github</tspan><tspan x="0" y="67.2">- Command Line</tspan><tspan x="0" y="84">- Sublime </tspan><tspan class="cls-4" x="60.88" y="84">T</tspan><tspan x="67.25" y="84">ext</tspan></text><text class="cls-7" transform="translate(39.41 416.42)"><tspan class="cls-8">B</tspan><tspan class="cls-8" x="9.28" y="0">L</tspan><tspan class="cls-8" x="16.23" y="0">OC UX/UI Design Apprenticeship</tspan><tspan class="cls-9" x="226.31" y="0"> | 5/2015-9/2015</tspan><tspan x="0" y="26">BIOLA University </tspan><tspan x="107.1" y="26">| B.S. Organizational </tspan><tspan x="235.46" y="26">L</tspan><tspan x="242.4" y="26">eadership | 5/2005-5/2007</tspan><tspan x="0" y="52">Cal </tspan><tspan x="23.6" y="52">S</tspan><tspan x="31.57" y="52">tate Fullerton</tspan><tspan class="cls-9" x="112.73" y="52"> | General Education | 9/2000-9/2002</tspan></text><text class="cls-7" transform="translate(40.45 535.53)">New Horizons of Southern California | Account E<tspan x="295.41" y="0">x</tspan><tspan class="cls-9" x="301.69" y="0">ecutive |  9/2014-1/2015</tspan><tspan class="cls-10"><tspan x="20" y="15.6">Sold New Horizons professional education classes to businesses.</tspan></tspan><tspan x="0" y="49.2">Manheim </tspan><tspan x="60.1" y="49.2">A</tspan><tspan x="69.15" y="49.2">uto </tspan><tspan x="92.59" y="49.2">A</tspan><tspan x="101.64" y="49.2">uctions | Account E</tspan><tspan x="218.16" y="49.2">x</tspan><tspan x="224.44" y="49.2">ecutive | 4/2012-5/2014</tspan><tspan class="cls-10"><tspan x="20" y="64.8">Sold Manhei</tspan><tspan x="90.76" y="64.8">m</tspan><tspan x="101.18" y="64.8">’</tspan><tspan x="103.78" y="64.8">s services to my accounts by listening to dealer needs and recommending </tspan><tspan x="20" y="80.4">appropriate solutions. *Chosen by management to be trained on the new direction of the </tspan><tspan x="20" y="96">compan</tspan><tspan x="65.85" y="96">y</tspan><tspan x="71.48" y="96">, and communicate it to our department, which resulted in increased productivity </tspan><tspan x="20" y="111.6">from our team, and a more positive work environment.</tspan></tspan><tspan x="0" y="145.2">Copart </tspan><tspan x="45.23" y="145.2">A</tspan><tspan x="54.28" y="145.2">uto </tspan><tspan x="77.73" y="145.2">A</tspan><tspan x="86.77" y="145.2">uctions | </tspan><tspan x="141.09" y="145.2">A</tspan><tspan x="150.13" y="145.2">utomotive Purchasing Agent | 3/2010-4/2012</tspan><tspan class="cls-10"><tspan x="20" y="160.8">Analyzed auction sales data to ma</tspan><tspan x="214.15" y="160.8">k</tspan><tspan x="220.8" y="160.8">e offers on vehicles, and secure inventory for the </tspan><tspan x="20" y="176.4">auction to profit from. * Secured over $700k in inventor</tspan><tspan x="332.78" y="176.4">y</tspan><tspan x="338.41" y="176.4">, and profited the company over </tspan><tspan x="20" y="192">$150k.</tspan></tspan><tspan class="cls-11"><tspan x="0" y="220.8">*More work experience available upon request. </tspan></tspan></text><text class="cls-6" transform="translate(285.95 260.82)">- Dra<tspan x="29.61" y="0">w</tspan><tspan x="39.27" y="0">.io (User Flows)</tspan><tspan x="0" y="16.8">- Balsamiq (wireframes)</tspan><tspan x="0" y="33.6">- Adobe Photoshop</tspan><tspan x="0" y="50.4">- Adobe Illustrator</tspan><tspan x="0" y="67.2">- S</tspan><tspan x="16.02" y="67.2">k</tspan><tspan x="23.17" y="67.2">etch</tspan><tspan x="0" y="84">- User </tspan><tspan x="40.23" y="84">R</tspan><tspan x="48.33" y="84">esearch</tspan></text><text class="cls-6" transform="translate(454.42 260.82)">- Google Forms<tspan x="0" y="16.8">- I</tspan><tspan x="11.16" y="16.8">n</tspan><tspan x="17.95" y="16.8">Vision App</tspan><tspan x="0" y="33.6">- </tspan><tspan x="7.81" y="33.6">P</tspan><tspan x="15.85" y="33.6">eek</tspan><tspan x="0" y="50.4">- UsabilityHub</tspan><tspan x="0" y="67.2">- </tspan><tspan x="7.81" y="67.2">T</tspan><tspan x="15.01" y="67.2">ypography</tspan></text><circle class="cls-12" cx="67.92" cy="67.86" r="49.49"/><path class="cls-5" d="M83.48-.9a61.21,61.21,0,0,1,3.63,117.35H612V-0.9H83.48Z"/><text class="cls-13" transform="translate(153.76 51.16)"><tspan class="cls-14">RICH SMAL</tspan><tspan x="149.49" y="0">L</tspan><tspan x="163.18" y="0">W</tspan><tspan class="cls-14" x="187.88" y="0">OOD</tspan></text><text class="cls-15"><tspan x="155.81" y="82.88">951.22</tspan><tspan x="201.52" y="82.88">9</tspan><tspan class="cls-4" x="210.29" y="82.88">.</tspan><tspan x="212.78" y="82.88">7373 </tspan><tspan class="cls-16" x="250.4" y="82.88">  </tspan><tspan class="cls-17" x="260.24" y="82.88">|</tspan><tspan class="cls-16" x="264.35" y="82.88">   </tspan><tspan x="279.11" y="82.88">rich10481@gmail</tspan><tspan x="390.98" y="82.88">.</tspan><tspan class="cls-9" x="394.34" y="82.88">com   </tspan><tspan class="cls-17" x="436.43" y="82.88">|</tspan><tspan class="cls-8" x="440.54" y="82.88"> </tspan><tspan class="cls-9" x="444.63" y="82.88">  richsmallwood</tspan><tspan x="552.02" y="82.88">.</tspan><tspan x="555.38" y="82.88">com</tspan></text><rect class="cls-18" x="243.44" y="232.21" width="37.12" height="135.31"/><rect class="cls-18" x="38.97" y="232.21" width="37.12" height="135.31"/><text class="cls-6" transform="translate(61.18 341.52) rotate(-90)">DEVE<tspan x="37.74" y="0">L</tspan><tspan x="45.11" y="0">OPER</tspan></text><text class="cls-6" transform="translate(265.66 348.58) rotate(-90)">UX/UI DESIGN</text></svg>